<?xml version="1.0" encoding="utf-8"?>
<!-- Generator: Adobe Illustrator 26.2.1, SVG Export Plug-In . SVG Version: 6.00 Build 0)  -->
<svg version="1.1" xmlns="http://www.w3.org/2000/svg" xmlns:xlink="http://www.w3.org/1999/xlink" x="0px" y="0px"
	 viewBox="0 0 236 40" style="enable-background:new 0 0 236 40;" xml:space="preserve">
<style type="text/css">
	.st0{display:none;}
	.st1{display:inline;}
	.st2{fill:#222222;}
	.st3{fill:#E9B949;}
	.st4{fill:#C8992D;}
</style>
<g id="Layer_1" class="st0">
	<g class="st1">
		<path class="st2" d="M37,8.7h4.4v14.8c0,1.4-0.3,2.6-0.9,3.6c-0.6,1-1.4,1.8-2.5,2.4c-1.1,0.6-2.3,0.8-3.7,0.8
			c-2.3,0-4-0.6-5.3-1.7c-1.3-1.2-1.9-2.8-1.9-4.9h4.4c0,1,0.2,1.8,0.7,2.3c0.4,0.5,1.1,0.7,2.1,0.7c0.8,0,1.5-0.3,2-0.9
			c0.5-0.6,0.7-1.4,0.7-2.5V8.7z M53.2,21.9c0-1.6,0.3-3,0.9-4.2c0.6-1.2,1.5-2.2,2.6-2.9c1.1-0.7,2.5-1,4-1c2.1,0,3.9,0.7,5.2,2
			c1.4,1.3,2.1,3.1,2.3,5.3l0,1.1c0,2.4-0.7,4.4-2,5.9c-1.4,1.5-3.2,2.2-5.5,2.2c-2.3,0-4.1-0.7-5.5-2.2c-1.4-1.5-2-3.5-2-6V21.9z
			 M57.4,22.2c0,1.5,0.3,2.7,0.8,3.5c0.6,0.8,1.4,1.2,2.4,1.2c1,0,1.8-0.4,2.4-1.2c0.6-0.8,0.9-2.1,0.9-3.8c0-1.5-0.3-2.6-0.9-3.4
			c-0.6-0.8-1.4-1.2-2.4-1.2c-1,0-1.8,0.4-2.4,1.2C57.7,19.3,57.4,20.5,57.4,22.2z M84,15.9c1.1-1.3,2.5-2,4.2-2c3.4,0,5.2,2,5.2,6
			V30h-4.2V20c0-0.9-0.2-1.6-0.6-2c-0.4-0.4-1-0.7-1.9-0.7c-1.2,0-2.1,0.5-2.7,1.4V30h-4.2V7.5H84V15.9z M109.5,14.2l0.1,1.8
			c1.1-1.4,2.7-2.1,4.6-2.1c1.7,0,2.9,0.5,3.8,1.5s1.2,2.5,1.3,4.4V30H115V19.9c0-0.9-0.2-1.5-0.6-1.9c-0.4-0.4-1-0.6-1.9-0.6
			c-1.2,0-2.1,0.5-2.7,1.5V30h-4.2V14.2H109.5z"/>
		<path class="st3" d="M131.7,30V8.7h6.6c1.9,0,3.6,0.4,5,1.3c1.5,0.8,2.6,2,3.5,3.6c0.8,1.6,1.2,3.3,1.2,5.3v1c0,2-0.4,3.7-1.2,5.3
			c-0.8,1.5-2,2.7-3.4,3.6c-1.5,0.8-3.2,1.3-5,1.3H131.7z M136.1,12.2v14.2h2.1c1.7,0,3-0.6,3.9-1.7c0.9-1.1,1.4-2.7,1.4-4.8v-1.1
			c0-2.2-0.4-3.8-1.3-4.9c-0.9-1.1-2.2-1.7-3.9-1.7H136.1z M159.3,21.9c0-1.6,0.3-3,0.9-4.2c0.6-1.2,1.5-2.2,2.6-2.9
			c1.1-0.7,2.5-1,4-1c2.1,0,3.9,0.7,5.2,2c1.4,1.3,2.1,3.1,2.3,5.3l0,1.1c0,2.4-0.7,4.4-2,5.9c-1.4,1.5-3.2,2.2-5.5,2.2
			c-2.3,0-4.1-0.7-5.5-2.2c-1.4-1.5-2-3.5-2-6V21.9z M163.5,22.2c0,1.5,0.3,2.7,0.9,3.5c0.6,0.8,1.4,1.2,2.4,1.2
			c1,0,1.8-0.4,2.4-1.2c0.6-0.8,0.9-2.1,0.9-3.8c0-1.5-0.3-2.6-0.9-3.4c-0.6-0.8-1.4-1.2-2.4-1.2c-1,0-1.8,0.4-2.4,1.2
			C163.8,19.3,163.5,20.5,163.5,22.2z M193.2,30.3c-2.3,0-4.2-0.7-5.7-2.1c-1.5-1.4-2.2-3.3-2.2-5.7V22c0-1.6,0.3-3,0.9-4.3
			c0.6-1.3,1.5-2.2,2.6-2.9c1.1-0.7,2.4-1,3.9-1c2.2,0,3.9,0.7,5.1,2.1c1.2,1.4,1.9,3.3,1.9,5.8v1.7h-10.1c0.1,1,0.5,1.9,1.2,2.5
			c0.7,0.6,1.6,0.9,2.6,0.9c1.6,0,2.9-0.6,3.8-1.8l2.1,2.3c-0.6,0.9-1.5,1.6-2.6,2.1C195.7,30,194.5,30.3,193.2,30.3z M192.7,17.3
			c-0.8,0-1.5,0.3-2.1,0.8c-0.5,0.6-0.9,1.4-1,2.4h5.9v-0.3c0-0.9-0.3-1.7-0.8-2.2C194.3,17.5,193.6,17.3,192.7,17.3z"/>
	</g>
</g>
<g id="Layer_2">
	<g>
		<g>
			<path d="M2.1,8.4C3.7,8.2,5.9,8,9.2,8c3.1,0,5.2,0.6,6.6,1.7c1.4,1,2.4,2.8,2.4,4.9c0,2-0.7,3.8-2,4.9c-1.7,1.6-4.2,2.3-7.4,2.3
				c-0.7,0-1.4-0.1-1.9-0.1v7.4H2.1V8.4z M7,17.9c0.5,0.1,1,0.2,1.9,0.2c2.7,0,4.4-1.2,4.4-3.4c0-2-1.5-3-4.1-3
				c-1.1,0-1.9,0.1-2.2,0.2V17.9z"/>
			<path d="M28.5,9.6c0,1.3-1,2.4-2.7,2.4c-1.6,0-2.6-1.1-2.6-2.4c0-1.3,1-2.4,2.6-2.4S28.5,8.2,28.5,9.6z M23.4,29.1V13.9h5v15.2
				H23.4z"/>
			<path d="M50.7,21.3c0,5.3-4.1,8.2-8.8,8.2c-4.7,0-8.5-2.9-8.5-7.8c0-4.7,3.4-8.1,8.9-8.1C47.3,13.5,50.7,16.8,50.7,21.3z
				 M38.6,21.5c0,2.6,1.3,4.5,3.5,4.5c2,0,3.5-1.6,3.5-4.5c0-2.3-1-4.5-3.4-4.5C39.6,17,38.6,19.2,38.6,21.5z"/>
			<path d="M61.2,9.5v4.4h3.5v3.7h-3.5v5c0,1.9,0.4,2.8,2,2.8c0.7,0,1.2-0.1,1.5-0.2l0,3.7c-0.6,0.2-1.8,0.5-3.3,0.5
				c-1.6,0-3-0.6-3.8-1.4c-0.9-0.9-1.3-2.5-1.3-4.6v-5.9h-2.1v-3.7h2.1v-3.3L61.2,9.5z"/>
			<path d="M69.8,19c0-2.5,0-3.9-0.1-5.2h4.2l0.2,3h0.1c0.8-2.4,2.9-3.4,4.5-3.4c0.4,0,0.7,0,1.1,0.1v4.6c-0.4-0.1-0.8-0.2-1.4-0.2
				c-2,0-3.2,1-3.5,2.5c0,0.3-0.1,0.6-0.1,0.9v7.7h-5V19z"/>
			<path class="st4" d="M112.2,28c-1.7,0.6-4.7,1.3-7.9,1.3c-4.3,0-7.4-1.1-9.5-3.1c-2-1.8-3-4.4-3-7.3c0-6.7,5.3-11,13-11
				c3.1,0,5.5,0.6,6.6,1.1l-1.1,3.9c-1.3-0.6-3-1-5.7-1c-4.3,0-7.6,2.3-7.6,6.6c0,4.1,3,6.9,7.5,6.9c1.3,0,2.4-0.2,2.8-0.4v-4.2
				h-3.7V17h8.5V28z"/>
			<path class="st4" d="M118.1,19c0-2.5,0-3.9-0.1-5.2h4.2l0.2,3h0.1c0.8-2.4,2.9-3.4,4.5-3.4c0.4,0,0.7,0,1.1,0.1v4.6
				c-0.4-0.1-0.8-0.2-1.4-0.2c-2,0-3.2,1-3.5,2.5c0,0.3-0.1,0.6-0.1,0.9v7.7h-5V19z"/>
			<path class="st4" d="M136.4,13.9l2.5,7.3c0.3,0.9,0.6,2.1,0.9,2.9h0.1c0.2-0.8,0.5-2.1,0.8-2.9l2.1-7.3h5.4l-3.7,9.4
				c-2.7,7.1-4.3,9.3-6,10.7c-1.7,1.4-3.5,1.9-4.9,2l-0.9-4.1c0.6-0.1,1.3-0.3,2.1-0.7c0.8-0.3,1.7-1.1,2.2-1.9
				c0.2-0.2,0.3-0.5,0.3-0.7c0-0.2,0-0.4-0.2-0.9l-6-13.9H136.4z"/>
			<path class="st4" d="M157.3,20.2L157.3,20.2c0.4-0.6,0.9-1.2,1.3-1.7l3.5-4.6h6.1l-6,6.1l7,9.1h-6.2l-4.2-6.2l-1.4,1.6v4.7h-5
				V6.8h5V20.2z"/>
			<path class="st4" d="M188.8,21.3c0,5.3-4.1,8.2-8.8,8.2c-4.7,0-8.5-2.9-8.5-7.8c0-4.7,3.4-8.1,8.9-8.1
				C185.4,13.5,188.8,16.8,188.8,21.3z M176.7,21.5c0,2.6,1.3,4.5,3.5,4.5c2,0,3.5-1.6,3.5-4.5c0-2.3-1-4.5-3.4-4.5
				C177.7,17,176.7,19.2,176.7,21.5z"/>
		</g>
	</g>
</g>
</svg>
